<svg xmlns="http://www.w3.org/2000/svg" viewBox="0 0 128 128" role="img" aria-label="メンチン麻雀のロゴ">
  <defs>
    <radialGradient id="feltGlow" cx="36" cy="24" r="104" gradientUnits="userSpaceOnUse">
      <stop offset="0" stop-color="#0f7650"/>
      <stop offset="0.48" stop-color="#063b2a"/>
      <stop offset="1" stop-color="#02170f"/>
    </radialGradient>
    <linearGradient id="gold" x1="26" y1="14" x2="104" y2="116" gradientUnits="userSpaceOnUse">
      <stop offset="0" stop-color="#fff2b8"/>
      <stop offset="0.38" stop-color="#d7b864"/>
      <stop offset="0.68" stop-color="#95702e"/>
      <stop offset="1" stop-color="#f2d78a"/>
    </linearGradient>
    <linearGradient id="tileFace" x1="44" y1="22" x2="82" y2="96" gradientUnits="userSpaceOnUse">
      <stop offset="0" stop-color="#fffff4"/>
      <stop offset="0.54" stop-color="#efe5cd"/>
      <stop offset="1" stop-color="#cdb98b"/>
    </linearGradient>
    <linearGradient id="tileEdge" x1="34" y1="24" x2="90" y2="104" gradientUnits="userSpaceOnUse">
      <stop offset="0" stop-color="#b9974a"/>
      <stop offset="1" stop-color="#5f3f18"/>
    </linearGradient>
    <filter id="softShadow" x="-28%" y="-28%" width="156%" height="168%">
      <feDropShadow dx="0" dy="7" stdDeviation="6" flood-color="#000b07" flood-opacity="0.48"/>
    </filter>
    <pattern id="felt" width="9" height="9" patternUnits="userSpaceOnUse">
      <path d="M0 8.5h9M8.5 0v9" stroke="#ffffff" stroke-opacity="0.055" stroke-width="1"/>
    </pattern>
  </defs>
  <rect width="128" height="128" rx="30" fill="url(#feltGlow)"/>
  <rect width="128" height="128" rx="30" fill="url(#felt)" opacity="0.52"/>
  <rect x="8" y="8" width="112" height="112" rx="24" fill="none" stroke="url(#gold)" stroke-width="4"/>
  <rect x="15" y="15" width="98" height="98" rx="20" fill="none" stroke="#fff5bf" stroke-opacity="0.16" stroke-width="1.5"/>
  <path d="M27 89c18.5 14.5 55.5 14.5 74 0" fill="none" stroke="url(#gold)" stroke-width="6" stroke-linecap="round" opacity="0.92"/>
  <g filter="url(#softShadow)">
    <rect x="38" y="19" width="52" height="86" rx="13" fill="url(#tileEdge)"/>
    <rect x="43.5" y="24.5" width="41" height="75" rx="9" fill="url(#tileFace)"/>
    <rect x="49" y="30" width="30" height="64" rx="6" fill="none" stroke="#7b5a25" stroke-opacity="0.26" stroke-width="1.5"/>
  </g>
  <g fill="none" stroke-linecap="round" stroke-linejoin="round">
    <path d="M64 41v35" stroke="#075b3d" stroke-width="5.5"/>
    <path d="M52 58c6-4.5 10-9 12-16 2 7 6 11.5 12 16" stroke="#0a704b" stroke-width="4.8"/>
    <path d="M52 66c6 4.7 10 8.5 12 15 2-6.5 6-10.3 12-15" stroke="#0a704b" stroke-width="4.8"/>
    <path d="M58 44c-5 0-8-2.5-10-7M70 44c5 0 8-2.5 10-7" stroke="#b48b3d" stroke-width="3.5"/>
    <path d="M58 79c-5 0-8 2.5-10 7M70 79c5 0 8 2.5 10 7" stroke="#b48b3d" stroke-width="3.5"/>
  </g>
  <circle cx="64" cy="62" r="6.5" fill="#0a704b" stroke="#d9b96e" stroke-width="2"/>
  <path d="M41 107h46" stroke="url(#gold)" stroke-width="5.5" stroke-linecap="round"/>
</svg>
