<svg xmlns="http://www.w3.org/2000/svg" viewBox="0 0 128 128" role="img" aria-label="Nankiru training notebook logo">
  <defs>
    <linearGradient id="bg" x1="18" y1="8" x2="110" y2="124" gradientUnits="userSpaceOnUse">
      <stop offset="0" stop-color="#0f3e7a"/>
      <stop offset="0.52" stop-color="#071f46"/>
      <stop offset="1" stop-color="#020b1d"/>
    </linearGradient>
    <linearGradient id="cover" x1="34" y1="15" x2="98" y2="111" gradientUnits="userSpaceOnUse">
      <stop offset="0" stop-color="#1b66bb"/>
      <stop offset="0.48" stop-color="#0d3f87"/>
      <stop offset="1" stop-color="#06265c"/>
    </linearGradient>
    <linearGradient id="gold" x1="35" y1="20" x2="90" y2="108" gradientUnits="userSpaceOnUse">
      <stop offset="0" stop-color="#fff1a8"/>
      <stop offset="0.45" stop-color="#d8af46"/>
      <stop offset="1" stop-color="#8d6420"/>
    </linearGradient>
    <linearGradient id="paper" x1="81" y1="25" x2="105" y2="105" gradientUnits="userSpaceOnUse">
      <stop offset="0" stop-color="#fff8df"/>
      <stop offset="1" stop-color="#c9a85b"/>
    </linearGradient>
    <filter id="shadow" x="-25%" y="-20%" width="150%" height="150%">
      <feDropShadow dx="0" dy="9" stdDeviation="7" flood-color="#000814" flood-opacity="0.45"/>
    </filter>
  </defs>
  <rect width="128" height="128" rx="28" fill="url(#bg)"/>
  <path d="M19 98c23 13 68 13 90 0v13c-22 12-67 12-90 0z" fill="#000814" opacity="0.38"/>
  <g filter="url(#shadow)">
    <path d="M31 19h55c8 0 15 7 15 15v74H40c-8 0-15-7-15-15V25c0-3 3-6 6-6z" fill="url(#paper)"/>
    <path d="M31 17h51c7 0 13 6 13 13v79H37c-7 0-13-6-13-13V24c0-4 3-7 7-7z" fill="url(#cover)"/>
    <path d="M33 19h12v88H33c-5 0-9-4-9-9V28c0-5 4-9 9-9z" fill="#041b42" opacity="0.55"/>
    <path d="M47 22v82" stroke="url(#gold)" stroke-width="4" stroke-linecap="round"/>
    <path d="M92 33h9v66h-9z" fill="#f6d37a" opacity="0.78"/>
    <path d="M83 33h14" stroke="url(#gold)" stroke-width="5" stroke-linecap="round"/>
    <path d="M83 97h14" stroke="url(#gold)" stroke-width="5" stroke-linecap="round"/>
  </g>
  <path d="M60 52h20v27H60z" fill="#f7fbff" stroke="url(#gold)" stroke-width="4" stroke-linejoin="round"/>
  <path d="M66 61h8M66 69h8" stroke="#0d3f87" stroke-width="4" stroke-linecap="round"/>
  <path d="M55 91h31" stroke="url(#gold)" stroke-width="6" stroke-linecap="round"/>
  <circle cx="66" cy="38" r="4" fill="#f4d77d"/>
  <circle cx="80" cy="38" r="4" fill="#a9d4ff"/>
</svg>
