<svg xmlns="http://www.w3.org/2000/svg" viewBox="0 0 128 128" role="img" aria-label="Tehai training app logo">
  <defs>
    <linearGradient id="lacquer" x1="18" y1="7" x2="110" y2="122" gradientUnits="userSpaceOnUse">
      <stop offset="0" stop-color="#303034"/>
      <stop offset="0.42" stop-color="#101113"/>
      <stop offset="1" stop-color="#030405"/>
    </linearGradient>
    <radialGradient id="topSheen" cx="34" cy="20" r="86" gradientUnits="userSpaceOnUse">
      <stop offset="0" stop-color="#fff2b8" stop-opacity="0.20"/>
      <stop offset="0.34" stop-color="#c6a862" stop-opacity="0.07"/>
      <stop offset="1" stop-color="#000000" stop-opacity="0"/>
    </radialGradient>
    <linearGradient id="gold" x1="22" y1="13" x2="107" y2="116" gradientUnits="userSpaceOnUse">
      <stop offset="0" stop-color="#fff1b4"/>
      <stop offset="0.36" stop-color="#d7b45f"/>
      <stop offset="0.72" stop-color="#8f6d2d"/>
      <stop offset="1" stop-color="#5e4618"/>
    </linearGradient>
    <linearGradient id="tileFace" x1="50" y1="34" x2="79" y2="96" gradientUnits="userSpaceOnUse">
      <stop offset="0" stop-color="#fffaf0"/>
      <stop offset="0.55" stop-color="#ead8b8"/>
      <stop offset="1" stop-color="#c6ad78"/>
    </linearGradient>
    <linearGradient id="tileSide" x1="42" y1="35" x2="88" y2="99" gradientUnits="userSpaceOnUse">
      <stop offset="0" stop-color="#c99d42"/>
      <stop offset="1" stop-color="#5d4014"/>
    </linearGradient>
    <filter id="drop" x="-22%" y="-22%" width="144%" height="154%">
      <feDropShadow dx="0" dy="9" stdDeviation="6" flood-color="#000000" flood-opacity="0.50"/>
    </filter>
  </defs>
  <rect width="128" height="128" rx="28" fill="url(#lacquer)"/>
  <rect x="7" y="7" width="114" height="114" rx="24" fill="none" stroke="url(#gold)" stroke-width="2.4"/>
  <rect x="14" y="14" width="100" height="100" rx="20" fill="none" stroke="#fff0b8" stroke-width="0.9" opacity="0.20"/>
  <path d="M15 19c29-9 69-9 98 0v41c-29 6-69 6-98 0z" fill="url(#topSheen)"/>
  <path d="M24 99c21 10 59 10 80 0" fill="none" stroke="url(#gold)" stroke-width="3.2" stroke-linecap="round" opacity="0.70"/>
  <g filter="url(#drop)">
    <path d="M44 29h31c8 0 14 6 14 14v48c0 8-6 14-14 14H44c-8 0-14-6-14-14V43c0-8 6-14 14-14z" fill="url(#tileSide)"/>
    <path d="M51 36h27c4 0 7 3 7 7v46c0 4-3 7-7 7H51c-4 0-7-3-7-7V43c0-4 3-7 7-7z" fill="url(#tileFace)"/>
    <path d="M52 44h25M52 88h25" stroke="#9f7a2f" stroke-width="1.4" stroke-linecap="round" opacity="0.48"/>
    <path d="M64.5 51v30M52 66h25" stroke="#151617" stroke-width="4.2" stroke-linecap="round"/>
    <circle cx="64.5" cy="66" r="5.2" fill="url(#gold)"/>
    <circle cx="64.5" cy="66" r="2.1" fill="#111214"/>
  </g>
  <path d="M38 24c16-5 36-5 52 0" fill="none" stroke="#fff0b8" stroke-width="1.6" stroke-linecap="round" opacity="0.24"/>
</svg>
