<svg xmlns="http://www.w3.org/2000/svg" viewBox="0 0 128 128" role="img" aria-label="Tehai training app logo">
  <defs>
    <linearGradient id="bg" x1="18" y1="10" x2="110" y2="118" gradientUnits="userSpaceOnUse">
      <stop offset="0" stop-color="#4a5fc1"/>
      <stop offset="1" stop-color="#1f2942"/>
    </linearGradient>
    <linearGradient id="tile" x1="36" y1="28" x2="88" y2="104" gradientUnits="userSpaceOnUse">
      <stop offset="0" stop-color="#fffef7"/>
      <stop offset="1" stop-color="#e6d8b7"/>
    </linearGradient>
    <filter id="shadow" x="-20%" y="-20%" width="140%" height="150%">
      <feDropShadow dx="0" dy="7" stdDeviation="6" flood-color="#101735" flood-opacity="0.32"/>
    </filter>
  </defs>
  <rect width="128" height="128" rx="28" fill="url(#bg)"/>
  <path d="M18 96c24 13 70 13 92 0v16c-23 13-68 13-92 0z" fill="#101735" opacity="0.3"/>
  <g filter="url(#shadow)">
    <rect x="25" y="42" width="28" height="48" rx="7" fill="#cfba8e"/>
    <rect x="29" y="46" width="20" height="40" rx="5" fill="url(#tile)"/>
    <rect x="50" y="34" width="28" height="56" rx="7" fill="#cfba8e"/>
    <rect x="54" y="38" width="20" height="48" rx="5" fill="url(#tile)"/>
    <rect x="75" y="42" width="28" height="48" rx="7" fill="#cfba8e"/>
    <rect x="79" y="46" width="20" height="40" rx="5" fill="url(#tile)"/>
  </g>
  <path d="M64 28v16M64 84v16M44 64H28M100 64H84" stroke="#14a085" stroke-width="7" stroke-linecap="round"/>
  <circle cx="64" cy="64" r="20" fill="none" stroke="#14a085" stroke-width="6"/>
  <path d="M57 63l6 7 12-18" fill="none" stroke="#c93653" stroke-width="6" stroke-linecap="round" stroke-linejoin="round"/>
  <circle cx="39" cy="58" r="3.5" fill="#2d3f9e"/>
  <circle cx="39" cy="73" r="3.5" fill="#2d3f9e"/>
  <path d="M87 56v17" stroke="#c93653" stroke-width="5" stroke-linecap="round"/>
</svg>
