<svg xmlns="http://www.w3.org/2000/svg" viewBox="0 0 128 128" role="img" aria-label="Tehai training app logo">
  <defs>
    <linearGradient id="lacquer" x1="20" y1="8" x2="108" y2="122" gradientUnits="userSpaceOnUse">
      <stop offset="0" stop-color="#2a2b2a"/>
      <stop offset="0.45" stop-color="#17191b"/>
      <stop offset="1" stop-color="#090a0b"/>
    </linearGradient>
    <radialGradient id="sheen" cx="34" cy="24" r="82" gradientUnits="userSpaceOnUse">
      <stop offset="0" stop-color="#f0d88d" stop-opacity="0.30"/>
      <stop offset="0.45" stop-color="#0f7a6e" stop-opacity="0.12"/>
      <stop offset="1" stop-color="#000000" stop-opacity="0"/>
    </radialGradient>
    <linearGradient id="gold" x1="28" y1="18" x2="101" y2="110" gradientUnits="userSpaceOnUse">
      <stop offset="0" stop-color="#f0d88d"/>
      <stop offset="0.48" stop-color="#b99a4e"/>
      <stop offset="1" stop-color="#765a24"/>
    </linearGradient>
    <linearGradient id="ivory" x1="48" y1="35" x2="76" y2="92" gradientUnits="userSpaceOnUse">
      <stop offset="0" stop-color="#fffdf7"/>
      <stop offset="1" stop-color="#eadcc4"/>
    </linearGradient>
    <filter id="softShadow" x="-24%" y="-24%" width="148%" height="156%">
      <feDropShadow dx="0" dy="8" stdDeviation="6" flood-color="#000000" flood-opacity="0.38"/>
    </filter>
  </defs>
  <rect width="128" height="128" rx="30" fill="url(#lacquer)"/>
  <rect x="7" y="7" width="114" height="114" rx="25" fill="none" stroke="url(#gold)" stroke-width="2.6" opacity="0.82"/>
  <rect x="13" y="13" width="102" height="102" rx="21" fill="none" stroke="#f3df9d" stroke-width="0.8" opacity="0.28"/>
  <path d="M18 20c25-11 67-11 92 0v89c-25 10-67 10-92 0z" fill="url(#sheen)"/>
  <g filter="url(#softShadow)">
    <rect x="43" y="30" width="42" height="68" rx="10" fill="url(#gold)"/>
    <rect x="48" y="36" width="32" height="56" rx="7" fill="url(#ivory)"/>
    <path d="M53 44h22" stroke="#d6bd79" stroke-width="1.5" stroke-linecap="round" opacity="0.72"/>
    <path d="M53 84h22" stroke="#d6bd79" stroke-width="1.5" stroke-linecap="round" opacity="0.58"/>
  </g>
  <circle cx="64" cy="64" r="19" fill="none" stroke="url(#gold)" stroke-width="4"/>
  <path d="M64 48v32M48 64h32" stroke="#0f7a6e" stroke-width="4.6" stroke-linecap="round"/>
  <circle cx="64" cy="64" r="5.5" fill="#4f5fa8"/>
  <path d="M33 96c17 7 45 7 62 0" fill="none" stroke="url(#gold)" stroke-width="3.5" stroke-linecap="round" opacity="0.72"/>
</svg>
